<mxfile host="app.diagrams.net" agent="Mozilla/5.0 (Windows NT 10.0; Win64; x64) AppleWebKit/537.36 (KHTML, like Gecko) Chrome/134.0.0.0 Safari/537.36" version="26.1.3">
  <diagram name="Page-1" id="74e2e168-ea6b-b213-b513-2b3c1d86103e">
    <mxGraphModel dx="1050" dy="557" grid="1" gridSize="10" guides="1" tooltips="1" connect="1" arrows="1" fold="1" page="1" pageScale="1" pageWidth="1100" pageHeight="850" background="none" math="0" shadow="0">
      <root>
        <mxCell id="0" />
        <mxCell id="1" parent="0" />
        <mxCell id="9PY-Ta1Q_iB8eTjJcCt7-1" value="&lt;font style=&quot;font-size: 18px;&quot;&gt;查询巡检计划&lt;/font&gt;" style="swimlane;html=1;childLayout=stackLayout;startSize=20;rounded=0;shadow=0;labelBackgroundColor=none;strokeWidth=1;fontFamily=Verdana;fontSize=8;align=center;" vertex="1" parent="1">
          <mxGeometry x="70" y="40" width="800" height="1180" as="geometry" />
        </mxCell>
        <mxCell id="9PY-Ta1Q_iB8eTjJcCt7-2" value="接收请求" style="swimlane;html=1;startSize=20;" vertex="1" parent="9PY-Ta1Q_iB8eTjJcCt7-1">
          <mxGeometry y="20" width="160" height="1160" as="geometry">
            <mxRectangle y="20" width="40" height="730" as="alternateBounds" />
          </mxGeometry>
        </mxCell>
        <mxCell id="9PY-Ta1Q_iB8eTjJcCt7-3" style="edgeStyle=orthogonalEdgeStyle;rounded=0;orthogonalLoop=1;jettySize=auto;html=1;exitX=0.5;exitY=1;exitDx=0;exitDy=0;entryX=0.5;entryY=0;entryDx=0;entryDy=0;" edge="1" parent="9PY-Ta1Q_iB8eTjJcCt7-2" source="9PY-Ta1Q_iB8eTjJcCt7-4" target="9PY-Ta1Q_iB8eTjJcCt7-10">
          <mxGeometry relative="1" as="geometry">
            <mxPoint x="70" y="167.5" as="targetPoint" />
          </mxGeometry>
        </mxCell>
        <mxCell id="9PY-Ta1Q_iB8eTjJcCt7-4" value="&lt;font style=&quot;font-size: 12px;&quot;&gt;开始&lt;/font&gt;" style="rounded=1;whiteSpace=wrap;html=1;shadow=0;labelBackgroundColor=none;strokeWidth=1;fontFamily=Verdana;fontSize=8;align=center;" vertex="1" parent="9PY-Ta1Q_iB8eTjJcCt7-2">
          <mxGeometry x="20" y="65" width="100" height="60" as="geometry" />
        </mxCell>
        <mxCell id="9PY-Ta1Q_iB8eTjJcCt7-5" style="edgeStyle=orthogonalEdgeStyle;rounded=0;orthogonalLoop=1;jettySize=auto;html=1;entryX=0.5;entryY=0;entryDx=0;entryDy=0;exitX=0.5;exitY=1;exitDx=0;exitDy=0;" edge="1" parent="9PY-Ta1Q_iB8eTjJcCt7-2" source="9PY-Ta1Q_iB8eTjJcCt7-10" target="9PY-Ta1Q_iB8eTjJcCt7-6">
          <mxGeometry relative="1" as="geometry">
            <mxPoint x="70" y="230" as="sourcePoint" />
          </mxGeometry>
        </mxCell>
        <mxCell id="9PY-Ta1Q_iB8eTjJcCt7-6" value="&lt;font style=&quot;font-size: 12px;&quot;&gt;参数校验&lt;/font&gt;" style="rhombus;whiteSpace=wrap;html=1;rounded=0;shadow=0;labelBackgroundColor=none;strokeWidth=1;fontFamily=Verdana;fontSize=8;align=center;" vertex="1" parent="9PY-Ta1Q_iB8eTjJcCt7-2">
          <mxGeometry x="20" y="250" width="100" height="75" as="geometry" />
        </mxCell>
        <mxCell id="9PY-Ta1Q_iB8eTjJcCt7-7" style="edgeStyle=orthogonalEdgeStyle;rounded=0;orthogonalLoop=1;jettySize=auto;html=1;exitX=0.5;exitY=1;exitDx=0;exitDy=0;" edge="1" parent="9PY-Ta1Q_iB8eTjJcCt7-2" source="9PY-Ta1Q_iB8eTjJcCt7-6" target="9PY-Ta1Q_iB8eTjJcCt7-9">
          <mxGeometry relative="1" as="geometry">
            <mxPoint x="70" y="980" as="targetPoint" />
          </mxGeometry>
        </mxCell>
        <mxCell id="9PY-Ta1Q_iB8eTjJcCt7-8" value="否" style="edgeLabel;html=1;align=center;verticalAlign=middle;resizable=0;points=[];" vertex="1" connectable="0" parent="9PY-Ta1Q_iB8eTjJcCt7-7">
          <mxGeometry x="-0.24" y="-1" relative="1" as="geometry">
            <mxPoint as="offset" />
          </mxGeometry>
        </mxCell>
        <mxCell id="9PY-Ta1Q_iB8eTjJcCt7-9" value="&lt;span style=&quot;font-size: 12px;&quot;&gt;失败返回&lt;/span&gt;" style="whiteSpace=wrap;html=1;fontSize=8;fontFamily=Verdana;rounded=0;shadow=0;labelBackgroundColor=none;strokeWidth=1;" vertex="1" parent="9PY-Ta1Q_iB8eTjJcCt7-2">
          <mxGeometry x="20" y="1080" width="100" height="60" as="geometry" />
        </mxCell>
        <mxCell id="9PY-Ta1Q_iB8eTjJcCt7-10" value="&lt;span style=&quot;font-size: 12px;&quot;&gt;参数转换/处理&lt;/span&gt;" style="whiteSpace=wrap;html=1;fontSize=8;fontFamily=Verdana;rounded=0;shadow=0;labelBackgroundColor=none;strokeWidth=1;" vertex="1" parent="9PY-Ta1Q_iB8eTjJcCt7-2">
          <mxGeometry x="20" y="160" width="100" height="60" as="geometry" />
        </mxCell>
        <mxCell id="9PY-Ta1Q_iB8eTjJcCt7-11" value="查询已办数据" style="swimlane;html=1;startSize=20;" vertex="1" parent="9PY-Ta1Q_iB8eTjJcCt7-1">
          <mxGeometry x="160" y="20" width="160" height="1160" as="geometry" />
        </mxCell>
        <mxCell id="9PY-Ta1Q_iB8eTjJcCt7-84" style="edgeStyle=orthogonalEdgeStyle;rounded=0;orthogonalLoop=1;jettySize=auto;html=1;exitX=0.5;exitY=1;exitDx=0;exitDy=0;entryX=0.5;entryY=0;entryDx=0;entryDy=0;" edge="1" parent="9PY-Ta1Q_iB8eTjJcCt7-11" source="9PY-Ta1Q_iB8eTjJcCt7-12" target="9PY-Ta1Q_iB8eTjJcCt7-83">
          <mxGeometry relative="1" as="geometry" />
        </mxCell>
        <mxCell id="9PY-Ta1Q_iB8eTjJcCt7-85" value="是" style="edgeLabel;html=1;align=center;verticalAlign=middle;resizable=0;points=[];" vertex="1" connectable="0" parent="9PY-Ta1Q_iB8eTjJcCt7-84">
          <mxGeometry x="-0.1543" y="-1" relative="1" as="geometry">
            <mxPoint as="offset" />
          </mxGeometry>
        </mxCell>
        <mxCell id="9PY-Ta1Q_iB8eTjJcCt7-12" value="&lt;span style=&quot;font-size: 12px;&quot;&gt;是否查询&lt;/span&gt;&lt;div&gt;&lt;span style=&quot;font-size: 12px;&quot;&gt;已办数据&lt;/span&gt;&lt;/div&gt;" style="rhombus;whiteSpace=wrap;html=1;rounded=0;shadow=0;labelBackgroundColor=none;strokeWidth=1;fontFamily=Verdana;fontSize=8;align=center;" vertex="1" parent="9PY-Ta1Q_iB8eTjJcCt7-11">
          <mxGeometry x="30" y="250" width="100" height="75" as="geometry" />
        </mxCell>
        <mxCell id="9PY-Ta1Q_iB8eTjJcCt7-87" style="edgeStyle=orthogonalEdgeStyle;rounded=0;orthogonalLoop=1;jettySize=auto;html=1;exitX=0.5;exitY=1;exitDx=0;exitDy=0;" edge="1" parent="9PY-Ta1Q_iB8eTjJcCt7-11" source="9PY-Ta1Q_iB8eTjJcCt7-83" target="9PY-Ta1Q_iB8eTjJcCt7-86">
          <mxGeometry relative="1" as="geometry" />
        </mxCell>
        <mxCell id="9PY-Ta1Q_iB8eTjJcCt7-83" value="&lt;span style=&quot;font-size: 12px;&quot;&gt;获取流程编码&lt;/span&gt;" style="whiteSpace=wrap;html=1;fontSize=8;fontFamily=Verdana;rounded=0;shadow=0;labelBackgroundColor=none;strokeWidth=1;" vertex="1" parent="9PY-Ta1Q_iB8eTjJcCt7-11">
          <mxGeometry x="30" y="360" width="100" height="60" as="geometry" />
        </mxCell>
        <mxCell id="9PY-Ta1Q_iB8eTjJcCt7-89" style="edgeStyle=orthogonalEdgeStyle;rounded=0;orthogonalLoop=1;jettySize=auto;html=1;exitX=0.5;exitY=1;exitDx=0;exitDy=0;entryX=0.5;entryY=0;entryDx=0;entryDy=0;" edge="1" parent="9PY-Ta1Q_iB8eTjJcCt7-11" source="9PY-Ta1Q_iB8eTjJcCt7-86" target="9PY-Ta1Q_iB8eTjJcCt7-88">
          <mxGeometry relative="1" as="geometry" />
        </mxCell>
        <mxCell id="9PY-Ta1Q_iB8eTjJcCt7-86" value="&lt;span style=&quot;font-size: 12px;&quot;&gt;获取全量差异流程编码&lt;/span&gt;" style="whiteSpace=wrap;html=1;fontSize=8;fontFamily=Verdana;rounded=0;shadow=0;labelBackgroundColor=none;strokeWidth=1;" vertex="1" parent="9PY-Ta1Q_iB8eTjJcCt7-11">
          <mxGeometry x="30" y="460" width="100" height="60" as="geometry" />
        </mxCell>
        <mxCell id="9PY-Ta1Q_iB8eTjJcCt7-91" style="edgeStyle=orthogonalEdgeStyle;rounded=0;orthogonalLoop=1;jettySize=auto;html=1;exitX=1;exitY=0.5;exitDx=0;exitDy=0;" edge="1" parent="9PY-Ta1Q_iB8eTjJcCt7-11" source="9PY-Ta1Q_iB8eTjJcCt7-88">
          <mxGeometry relative="1" as="geometry">
            <mxPoint x="150" y="290" as="targetPoint" />
          </mxGeometry>
        </mxCell>
        <mxCell id="9PY-Ta1Q_iB8eTjJcCt7-88" value="&lt;div&gt;&lt;span style=&quot;font-size: 12px;&quot;&gt;查询已办的&lt;/span&gt;&lt;span style=&quot;font-size: 12px;&quot;&gt;&lt;/span&gt;&lt;/div&gt;&lt;span style=&quot;font-size: 12px;&quot;&gt;检修计划数据&lt;/span&gt;" style="whiteSpace=wrap;html=1;fontSize=8;fontFamily=Verdana;rounded=0;shadow=0;labelBackgroundColor=none;strokeWidth=1;" vertex="1" parent="9PY-Ta1Q_iB8eTjJcCt7-11">
          <mxGeometry x="30" y="560" width="100" height="60" as="geometry" />
        </mxCell>
        <mxCell id="9PY-Ta1Q_iB8eTjJcCt7-15" value="查询待办数据" style="swimlane;html=1;startSize=20;" vertex="1" parent="9PY-Ta1Q_iB8eTjJcCt7-1">
          <mxGeometry x="320" y="20" width="160" height="1160" as="geometry" />
        </mxCell>
        <mxCell id="9PY-Ta1Q_iB8eTjJcCt7-93" style="edgeStyle=orthogonalEdgeStyle;rounded=0;orthogonalLoop=1;jettySize=auto;html=1;exitX=0.5;exitY=1;exitDx=0;exitDy=0;entryX=0.5;entryY=0;entryDx=0;entryDy=0;" edge="1" parent="9PY-Ta1Q_iB8eTjJcCt7-15" source="9PY-Ta1Q_iB8eTjJcCt7-90" target="9PY-Ta1Q_iB8eTjJcCt7-92">
          <mxGeometry relative="1" as="geometry" />
        </mxCell>
        <mxCell id="9PY-Ta1Q_iB8eTjJcCt7-90" value="&lt;div&gt;&lt;span style=&quot;font-size: 12px;&quot;&gt;查询待办的&lt;/span&gt;&lt;span style=&quot;font-size: 12px;&quot;&gt;&lt;/span&gt;&lt;/div&gt;&lt;span style=&quot;font-size: 12px;&quot;&gt;检修计划数据&lt;/span&gt;" style="whiteSpace=wrap;html=1;fontSize=8;fontFamily=Verdana;rounded=0;shadow=0;labelBackgroundColor=none;strokeWidth=1;" vertex="1" parent="9PY-Ta1Q_iB8eTjJcCt7-15">
          <mxGeometry x="30" y="257.5" width="100" height="60" as="geometry" />
        </mxCell>
        <mxCell id="9PY-Ta1Q_iB8eTjJcCt7-95" style="edgeStyle=orthogonalEdgeStyle;rounded=0;orthogonalLoop=1;jettySize=auto;html=1;exitX=0.5;exitY=1;exitDx=0;exitDy=0;entryX=0.5;entryY=0;entryDx=0;entryDy=0;" edge="1" parent="9PY-Ta1Q_iB8eTjJcCt7-15" source="9PY-Ta1Q_iB8eTjJcCt7-92" target="9PY-Ta1Q_iB8eTjJcCt7-94">
          <mxGeometry relative="1" as="geometry" />
        </mxCell>
        <mxCell id="9PY-Ta1Q_iB8eTjJcCt7-92" value="&lt;span style=&quot;font-size: 12px;&quot;&gt;查询待办数据&lt;/span&gt;&lt;div&gt;&lt;span style=&quot;font-size: 12px;&quot;&gt;是否合并后的计划&lt;/span&gt;&lt;/div&gt;" style="whiteSpace=wrap;html=1;fontSize=8;fontFamily=Verdana;rounded=0;shadow=0;labelBackgroundColor=none;strokeWidth=1;" vertex="1" parent="9PY-Ta1Q_iB8eTjJcCt7-15">
          <mxGeometry x="30" y="360" width="100" height="60" as="geometry" />
        </mxCell>
        <mxCell id="9PY-Ta1Q_iB8eTjJcCt7-103" style="edgeStyle=orthogonalEdgeStyle;rounded=0;orthogonalLoop=1;jettySize=auto;html=1;exitX=0.5;exitY=1;exitDx=0;exitDy=0;entryX=0.5;entryY=0;entryDx=0;entryDy=0;" edge="1" parent="9PY-Ta1Q_iB8eTjJcCt7-15" source="9PY-Ta1Q_iB8eTjJcCt7-94" target="9PY-Ta1Q_iB8eTjJcCt7-102">
          <mxGeometry relative="1" as="geometry" />
        </mxCell>
        <mxCell id="9PY-Ta1Q_iB8eTjJcCt7-94" value="&lt;span style=&quot;font-size: 12px;&quot;&gt;查询待办数据&lt;/span&gt;&lt;div&gt;&lt;span style=&quot;font-size: 12px;&quot;&gt;是否生成子计划&lt;/span&gt;&lt;/div&gt;" style="whiteSpace=wrap;html=1;fontSize=8;fontFamily=Verdana;rounded=0;shadow=0;labelBackgroundColor=none;strokeWidth=1;" vertex="1" parent="9PY-Ta1Q_iB8eTjJcCt7-15">
          <mxGeometry x="30" y="460" width="100" height="60" as="geometry" />
        </mxCell>
        <mxCell id="9PY-Ta1Q_iB8eTjJcCt7-102" value="&lt;span style=&quot;font-size: 12px;&quot;&gt;补全待办数据字段&lt;/span&gt;&lt;div&gt;&lt;span style=&quot;font-size: 12px;&quot;&gt;是否和后计划、&lt;/span&gt;&lt;/div&gt;&lt;div&gt;&lt;span style=&quot;font-size: 12px;&quot;&gt;是否生成子计划&lt;/span&gt;&lt;/div&gt;" style="whiteSpace=wrap;html=1;fontSize=8;fontFamily=Verdana;rounded=0;shadow=0;labelBackgroundColor=none;strokeWidth=1;" vertex="1" parent="9PY-Ta1Q_iB8eTjJcCt7-15">
          <mxGeometry x="30" y="560" width="100" height="60" as="geometry" />
        </mxCell>
        <mxCell id="9PY-Ta1Q_iB8eTjJcCt7-19" value="查询检修计划任务" style="swimlane;html=1;startSize=20;" vertex="1" parent="9PY-Ta1Q_iB8eTjJcCt7-1">
          <mxGeometry x="480" y="20" width="160" height="1160" as="geometry" />
        </mxCell>
        <mxCell id="9PY-Ta1Q_iB8eTjJcCt7-20" value="" style="edgeStyle=orthogonalEdgeStyle;rounded=0;orthogonalLoop=1;jettySize=auto;html=1;" edge="1" parent="9PY-Ta1Q_iB8eTjJcCt7-19" source="9PY-Ta1Q_iB8eTjJcCt7-21" target="9PY-Ta1Q_iB8eTjJcCt7-23">
          <mxGeometry relative="1" as="geometry" />
        </mxCell>
        <mxCell id="9PY-Ta1Q_iB8eTjJcCt7-21" value="&lt;font style=&quot;font-size: 12px;&quot;&gt;查询&lt;br&gt;检修计划关联任务&lt;/font&gt;" style="whiteSpace=wrap;html=1;fontSize=8;fontFamily=Verdana;rounded=0;shadow=0;labelBackgroundColor=none;strokeWidth=1;" vertex="1" parent="9PY-Ta1Q_iB8eTjJcCt7-19">
          <mxGeometry x="30" y="257.5" width="100" height="60" as="geometry" />
        </mxCell>
        <mxCell id="9PY-Ta1Q_iB8eTjJcCt7-22" style="edgeStyle=orthogonalEdgeStyle;rounded=0;orthogonalLoop=1;jettySize=auto;html=1;exitX=0.5;exitY=1;exitDx=0;exitDy=0;entryX=0.5;entryY=0;entryDx=0;entryDy=0;" edge="1" parent="9PY-Ta1Q_iB8eTjJcCt7-19" source="9PY-Ta1Q_iB8eTjJcCt7-23" target="9PY-Ta1Q_iB8eTjJcCt7-25">
          <mxGeometry relative="1" as="geometry" />
        </mxCell>
        <mxCell id="9PY-Ta1Q_iB8eTjJcCt7-23" value="&lt;span style=&quot;font-size: 12px;&quot;&gt;查询&lt;/span&gt;&lt;div&gt;&lt;span style=&quot;font-size: 12px;&quot;&gt;检修设备信息&lt;/span&gt;&lt;/div&gt;" style="whiteSpace=wrap;html=1;fontSize=8;fontFamily=Verdana;rounded=0;shadow=0;labelBackgroundColor=none;strokeWidth=1;" vertex="1" parent="9PY-Ta1Q_iB8eTjJcCt7-19">
          <mxGeometry x="30" y="360" width="100" height="60" as="geometry" />
        </mxCell>
        <mxCell id="9PY-Ta1Q_iB8eTjJcCt7-24" style="edgeStyle=orthogonalEdgeStyle;rounded=0;orthogonalLoop=1;jettySize=auto;html=1;exitX=0.5;exitY=1;exitDx=0;exitDy=0;entryX=0.5;entryY=0;entryDx=0;entryDy=0;" edge="1" parent="9PY-Ta1Q_iB8eTjJcCt7-19" source="9PY-Ta1Q_iB8eTjJcCt7-25" target="9PY-Ta1Q_iB8eTjJcCt7-27">
          <mxGeometry relative="1" as="geometry" />
        </mxCell>
        <mxCell id="9PY-Ta1Q_iB8eTjJcCt7-25" value="&lt;span style=&quot;font-size: 12px;&quot;&gt;查询&lt;/span&gt;&lt;div&gt;&lt;span style=&quot;font-size: 12px;&quot;&gt;勘察信息&lt;/span&gt;&lt;/div&gt;" style="whiteSpace=wrap;html=1;fontSize=8;fontFamily=Verdana;rounded=0;shadow=0;labelBackgroundColor=none;strokeWidth=1;" vertex="1" parent="9PY-Ta1Q_iB8eTjJcCt7-19">
          <mxGeometry x="30" y="460" width="100" height="60" as="geometry" />
        </mxCell>
        <mxCell id="9PY-Ta1Q_iB8eTjJcCt7-26" style="edgeStyle=orthogonalEdgeStyle;rounded=0;orthogonalLoop=1;jettySize=auto;html=1;exitX=0.5;exitY=1;exitDx=0;exitDy=0;entryX=0.5;entryY=0;entryDx=0;entryDy=0;" edge="1" parent="9PY-Ta1Q_iB8eTjJcCt7-19" source="9PY-Ta1Q_iB8eTjJcCt7-27" target="9PY-Ta1Q_iB8eTjJcCt7-28">
          <mxGeometry relative="1" as="geometry" />
        </mxCell>
        <mxCell id="9PY-Ta1Q_iB8eTjJcCt7-27" value="&lt;span style=&quot;font-size: 12px;&quot;&gt;查询&lt;/span&gt;&lt;div&gt;&lt;span style=&quot;font-size: 12px;&quot;&gt;工序信息&lt;/span&gt;&lt;/div&gt;" style="whiteSpace=wrap;html=1;fontSize=8;fontFamily=Verdana;rounded=0;shadow=0;labelBackgroundColor=none;strokeWidth=1;" vertex="1" parent="9PY-Ta1Q_iB8eTjJcCt7-19">
          <mxGeometry x="30" y="560" width="100" height="60" as="geometry" />
        </mxCell>
        <mxCell id="9PY-Ta1Q_iB8eTjJcCt7-106" style="edgeStyle=orthogonalEdgeStyle;rounded=0;orthogonalLoop=1;jettySize=auto;html=1;exitX=0.5;exitY=1;exitDx=0;exitDy=0;entryX=0.5;entryY=0;entryDx=0;entryDy=0;" edge="1" parent="9PY-Ta1Q_iB8eTjJcCt7-19" source="9PY-Ta1Q_iB8eTjJcCt7-28" target="9PY-Ta1Q_iB8eTjJcCt7-105">
          <mxGeometry relative="1" as="geometry" />
        </mxCell>
        <mxCell id="9PY-Ta1Q_iB8eTjJcCt7-28" value="&lt;span style=&quot;font-size: 12px;&quot;&gt;查询&lt;/span&gt;&lt;div&gt;&lt;span style=&quot;font-size: 12px;&quot;&gt;检修班组&lt;/span&gt;&lt;/div&gt;" style="whiteSpace=wrap;html=1;fontSize=8;fontFamily=Verdana;rounded=0;shadow=0;labelBackgroundColor=none;strokeWidth=1;" vertex="1" parent="9PY-Ta1Q_iB8eTjJcCt7-19">
          <mxGeometry x="30" y="660" width="100" height="60" as="geometry" />
        </mxCell>
        <mxCell id="9PY-Ta1Q_iB8eTjJcCt7-108" style="edgeStyle=orthogonalEdgeStyle;rounded=0;orthogonalLoop=1;jettySize=auto;html=1;exitX=0.5;exitY=1;exitDx=0;exitDy=0;entryX=0.5;entryY=0;entryDx=0;entryDy=0;" edge="1" parent="9PY-Ta1Q_iB8eTjJcCt7-19" source="9PY-Ta1Q_iB8eTjJcCt7-105" target="9PY-Ta1Q_iB8eTjJcCt7-107">
          <mxGeometry relative="1" as="geometry" />
        </mxCell>
        <mxCell id="9PY-Ta1Q_iB8eTjJcCt7-105" value="&lt;span style=&quot;font-size: 12px;&quot;&gt;查询&lt;/span&gt;&lt;div&gt;&lt;span style=&quot;font-size: 12px;&quot;&gt;派发信息&lt;/span&gt;&lt;/div&gt;" style="whiteSpace=wrap;html=1;fontSize=8;fontFamily=Verdana;rounded=0;shadow=0;labelBackgroundColor=none;strokeWidth=1;" vertex="1" parent="9PY-Ta1Q_iB8eTjJcCt7-19">
          <mxGeometry x="30" y="760" width="100" height="60" as="geometry" />
        </mxCell>
        <mxCell id="9PY-Ta1Q_iB8eTjJcCt7-110" style="edgeStyle=orthogonalEdgeStyle;rounded=0;orthogonalLoop=1;jettySize=auto;html=1;exitX=0.5;exitY=1;exitDx=0;exitDy=0;entryX=0.5;entryY=0;entryDx=0;entryDy=0;" edge="1" parent="9PY-Ta1Q_iB8eTjJcCt7-19" source="9PY-Ta1Q_iB8eTjJcCt7-107" target="9PY-Ta1Q_iB8eTjJcCt7-109">
          <mxGeometry relative="1" as="geometry" />
        </mxCell>
        <mxCell id="9PY-Ta1Q_iB8eTjJcCt7-107" value="&lt;span style=&quot;font-size: 12px;&quot;&gt;查询&lt;/span&gt;&lt;div&gt;&lt;span style=&quot;font-size: 12px;&quot;&gt;创建人组织信息&lt;/span&gt;&lt;/div&gt;" style="whiteSpace=wrap;html=1;fontSize=8;fontFamily=Verdana;rounded=0;shadow=0;labelBackgroundColor=none;strokeWidth=1;" vertex="1" parent="9PY-Ta1Q_iB8eTjJcCt7-19">
          <mxGeometry x="30" y="860" width="100" height="60" as="geometry" />
        </mxCell>
        <mxCell id="9PY-Ta1Q_iB8eTjJcCt7-109" value="&lt;span style=&quot;font-size: 12px;&quot;&gt;组装&lt;/span&gt;&lt;div&gt;&lt;span style=&quot;font-size: 12px;&quot;&gt;所有数据到检修计划对象&lt;/span&gt;&lt;/div&gt;" style="whiteSpace=wrap;html=1;fontSize=8;fontFamily=Verdana;rounded=0;shadow=0;labelBackgroundColor=none;strokeWidth=1;" vertex="1" parent="9PY-Ta1Q_iB8eTjJcCt7-19">
          <mxGeometry x="30" y="960" width="100" height="60" as="geometry" />
        </mxCell>
        <mxCell id="9PY-Ta1Q_iB8eTjJcCt7-29" value="查询停电范围数据" style="swimlane;html=1;startSize=20;" vertex="1" parent="9PY-Ta1Q_iB8eTjJcCt7-1">
          <mxGeometry x="640" y="20" width="160" height="1160" as="geometry" />
        </mxCell>
        <mxCell id="9PY-Ta1Q_iB8eTjJcCt7-30" style="edgeStyle=orthogonalEdgeStyle;rounded=0;orthogonalLoop=1;jettySize=auto;html=1;exitX=0.5;exitY=1;exitDx=0;exitDy=0;entryX=0.5;entryY=0;entryDx=0;entryDy=0;" edge="1" parent="9PY-Ta1Q_iB8eTjJcCt7-29" source="9PY-Ta1Q_iB8eTjJcCt7-111" target="9PY-Ta1Q_iB8eTjJcCt7-34">
          <mxGeometry relative="1" as="geometry">
            <mxPoint x="80" y="325" as="sourcePoint" />
          </mxGeometry>
        </mxCell>
        <mxCell id="9PY-Ta1Q_iB8eTjJcCt7-33" style="edgeStyle=orthogonalEdgeStyle;rounded=0;orthogonalLoop=1;jettySize=auto;html=1;exitX=0.5;exitY=1;exitDx=0;exitDy=0;" edge="1" parent="9PY-Ta1Q_iB8eTjJcCt7-29" source="9PY-Ta1Q_iB8eTjJcCt7-34" target="9PY-Ta1Q_iB8eTjJcCt7-36">
          <mxGeometry relative="1" as="geometry" />
        </mxCell>
        <mxCell id="9PY-Ta1Q_iB8eTjJcCt7-34" value="&lt;div&gt;&lt;span style=&quot;font-size: 12px;&quot;&gt;查询&lt;/span&gt;&lt;/div&gt;&lt;div&gt;&lt;span style=&quot;font-size: 12px;&quot;&gt;检修计划停电范围&lt;/span&gt;&lt;/div&gt;" style="whiteSpace=wrap;html=1;fontSize=8;fontFamily=Verdana;rounded=0;shadow=0;labelBackgroundColor=none;strokeWidth=1;" vertex="1" parent="9PY-Ta1Q_iB8eTjJcCt7-29">
          <mxGeometry x="30" y="360" width="100" height="60" as="geometry" />
        </mxCell>
        <mxCell id="9PY-Ta1Q_iB8eTjJcCt7-35" style="edgeStyle=orthogonalEdgeStyle;rounded=0;orthogonalLoop=1;jettySize=auto;html=1;exitX=0.5;exitY=1;exitDx=0;exitDy=0;entryX=0.5;entryY=0;entryDx=0;entryDy=0;" edge="1" parent="9PY-Ta1Q_iB8eTjJcCt7-29" source="9PY-Ta1Q_iB8eTjJcCt7-36" target="9PY-Ta1Q_iB8eTjJcCt7-38">
          <mxGeometry relative="1" as="geometry" />
        </mxCell>
        <mxCell id="9PY-Ta1Q_iB8eTjJcCt7-36" value="&lt;div&gt;&lt;span style=&quot;font-size: 12px;&quot;&gt;查询&lt;/span&gt;&lt;/div&gt;&lt;div&gt;&lt;span style=&quot;font-size: 12px;&quot;&gt;检修计划的站线&lt;/span&gt;&lt;/div&gt;" style="whiteSpace=wrap;html=1;fontSize=8;fontFamily=Verdana;rounded=0;shadow=0;labelBackgroundColor=none;strokeWidth=1;" vertex="1" parent="9PY-Ta1Q_iB8eTjJcCt7-29">
          <mxGeometry x="30" y="460" width="100" height="60" as="geometry" />
        </mxCell>
        <mxCell id="9PY-Ta1Q_iB8eTjJcCt7-37" style="edgeStyle=orthogonalEdgeStyle;rounded=0;orthogonalLoop=1;jettySize=auto;html=1;exitX=0.5;exitY=1;exitDx=0;exitDy=0;entryX=0.5;entryY=0;entryDx=0;entryDy=0;" edge="1" parent="9PY-Ta1Q_iB8eTjJcCt7-29" source="9PY-Ta1Q_iB8eTjJcCt7-38" target="9PY-Ta1Q_iB8eTjJcCt7-40">
          <mxGeometry relative="1" as="geometry" />
        </mxCell>
        <mxCell id="9PY-Ta1Q_iB8eTjJcCt7-38" value="&lt;div&gt;&lt;span style=&quot;font-size: 12px;&quot;&gt;查询&lt;/span&gt;&lt;/div&gt;&lt;div&gt;&lt;span style=&quot;font-size: 12px;&quot;&gt;检修计划变更数据&lt;/span&gt;&lt;/div&gt;" style="whiteSpace=wrap;html=1;fontSize=8;fontFamily=Verdana;rounded=0;shadow=0;labelBackgroundColor=none;strokeWidth=1;" vertex="1" parent="9PY-Ta1Q_iB8eTjJcCt7-29">
          <mxGeometry x="30" y="560" width="100" height="60" as="geometry" />
        </mxCell>
        <mxCell id="9PY-Ta1Q_iB8eTjJcCt7-39" style="edgeStyle=orthogonalEdgeStyle;rounded=0;orthogonalLoop=1;jettySize=auto;html=1;exitX=0.5;exitY=1;exitDx=0;exitDy=0;entryX=0.5;entryY=0;entryDx=0;entryDy=0;" edge="1" parent="9PY-Ta1Q_iB8eTjJcCt7-29" source="9PY-Ta1Q_iB8eTjJcCt7-40" target="9PY-Ta1Q_iB8eTjJcCt7-41">
          <mxGeometry relative="1" as="geometry" />
        </mxCell>
        <mxCell id="9PY-Ta1Q_iB8eTjJcCt7-40" value="&lt;span style=&quot;font-size: 12px;&quot;&gt;设置&lt;/span&gt;&lt;div&gt;&lt;span style=&quot;font-size: 12px;&quot;&gt;检修计划停电范围&lt;/span&gt;&lt;/div&gt;&lt;div&gt;&lt;span style=&quot;font-size: 12px;&quot;&gt;的调度接收单位&lt;/span&gt;&lt;/div&gt;" style="whiteSpace=wrap;html=1;fontSize=8;fontFamily=Verdana;rounded=0;shadow=0;labelBackgroundColor=none;strokeWidth=1;" vertex="1" parent="9PY-Ta1Q_iB8eTjJcCt7-29">
          <mxGeometry x="30" y="660" width="100" height="60" as="geometry" />
        </mxCell>
        <mxCell id="9PY-Ta1Q_iB8eTjJcCt7-114" style="edgeStyle=orthogonalEdgeStyle;rounded=0;orthogonalLoop=1;jettySize=auto;html=1;exitX=0.5;exitY=1;exitDx=0;exitDy=0;" edge="1" parent="9PY-Ta1Q_iB8eTjJcCt7-29" source="9PY-Ta1Q_iB8eTjJcCt7-41" target="9PY-Ta1Q_iB8eTjJcCt7-113">
          <mxGeometry relative="1" as="geometry" />
        </mxCell>
        <mxCell id="9PY-Ta1Q_iB8eTjJcCt7-41" value="&lt;span style=&quot;font-size: 12px;&quot;&gt;处理补充&lt;/span&gt;&lt;div&gt;&lt;span style=&quot;font-size: 12px;&quot;&gt;检修计划对象字段&lt;/span&gt;&lt;/div&gt;" style="whiteSpace=wrap;html=1;fontSize=8;fontFamily=Verdana;rounded=0;shadow=0;labelBackgroundColor=none;strokeWidth=1;" vertex="1" parent="9PY-Ta1Q_iB8eTjJcCt7-29">
          <mxGeometry x="30" y="760" width="100" height="60" as="geometry" />
        </mxCell>
        <mxCell id="9PY-Ta1Q_iB8eTjJcCt7-111" value="&lt;span style=&quot;font-size: 12px;&quot;&gt;查询&lt;/span&gt;&lt;div&gt;&lt;span style=&quot;font-size: 12px;&quot;&gt;停电边界设备&lt;/span&gt;&lt;/div&gt;" style="whiteSpace=wrap;html=1;fontSize=8;fontFamily=Verdana;rounded=0;shadow=0;labelBackgroundColor=none;strokeWidth=1;" vertex="1" parent="9PY-Ta1Q_iB8eTjJcCt7-29">
          <mxGeometry x="30" y="260" width="100" height="60" as="geometry" />
        </mxCell>
        <mxCell id="9PY-Ta1Q_iB8eTjJcCt7-113" value="&lt;span style=&quot;font-size: 12px;&quot;&gt;成功返回&lt;/span&gt;" style="whiteSpace=wrap;html=1;fontSize=8;fontFamily=Verdana;rounded=0;shadow=0;labelBackgroundColor=none;strokeWidth=1;" vertex="1" parent="9PY-Ta1Q_iB8eTjJcCt7-29">
          <mxGeometry x="30" y="1080" width="100" height="60" as="geometry" />
        </mxCell>
        <mxCell id="9PY-Ta1Q_iB8eTjJcCt7-42" value="" style="edgeStyle=orthogonalEdgeStyle;rounded=0;orthogonalLoop=1;jettySize=auto;html=1;" edge="1" parent="9PY-Ta1Q_iB8eTjJcCt7-1" source="9PY-Ta1Q_iB8eTjJcCt7-6" target="9PY-Ta1Q_iB8eTjJcCt7-12">
          <mxGeometry relative="1" as="geometry" />
        </mxCell>
        <mxCell id="9PY-Ta1Q_iB8eTjJcCt7-43" value="是" style="edgeLabel;html=1;align=center;verticalAlign=middle;resizable=0;points=[];" vertex="1" connectable="0" parent="9PY-Ta1Q_iB8eTjJcCt7-42">
          <mxGeometry x="-0.5771" relative="1" as="geometry">
            <mxPoint as="offset" />
          </mxGeometry>
        </mxCell>
        <mxCell id="9PY-Ta1Q_iB8eTjJcCt7-44" style="edgeStyle=orthogonalEdgeStyle;rounded=0;orthogonalLoop=1;jettySize=auto;html=1;exitX=1;exitY=0.5;exitDx=0;exitDy=0;entryX=0;entryY=0.5;entryDx=0;entryDy=0;" edge="1" parent="9PY-Ta1Q_iB8eTjJcCt7-1" source="9PY-Ta1Q_iB8eTjJcCt7-12">
          <mxGeometry relative="1" as="geometry">
            <mxPoint x="350" y="307.5" as="targetPoint" />
          </mxGeometry>
        </mxCell>
        <mxCell id="9PY-Ta1Q_iB8eTjJcCt7-45" value="否" style="edgeLabel;html=1;align=center;verticalAlign=middle;resizable=0;points=[];" vertex="1" connectable="0" parent="9PY-Ta1Q_iB8eTjJcCt7-44">
          <mxGeometry x="-0.5067" y="-1" relative="1" as="geometry">
            <mxPoint as="offset" />
          </mxGeometry>
        </mxCell>
        <mxCell id="9PY-Ta1Q_iB8eTjJcCt7-104" style="edgeStyle=orthogonalEdgeStyle;rounded=0;orthogonalLoop=1;jettySize=auto;html=1;exitX=0.5;exitY=1;exitDx=0;exitDy=0;entryX=0.5;entryY=0;entryDx=0;entryDy=0;" edge="1" parent="9PY-Ta1Q_iB8eTjJcCt7-1" source="9PY-Ta1Q_iB8eTjJcCt7-102" target="9PY-Ta1Q_iB8eTjJcCt7-21">
          <mxGeometry relative="1" as="geometry">
            <mxPoint x="470" y="240" as="targetPoint" />
            <Array as="points">
              <mxPoint x="400" y="680" />
              <mxPoint x="470" y="680" />
              <mxPoint x="470" y="230" />
              <mxPoint x="560" y="230" />
            </Array>
          </mxGeometry>
        </mxCell>
        <mxCell id="9PY-Ta1Q_iB8eTjJcCt7-112" style="edgeStyle=orthogonalEdgeStyle;rounded=0;orthogonalLoop=1;jettySize=auto;html=1;exitX=0.5;exitY=1;exitDx=0;exitDy=0;entryX=0.5;entryY=0;entryDx=0;entryDy=0;" edge="1" parent="9PY-Ta1Q_iB8eTjJcCt7-1" source="9PY-Ta1Q_iB8eTjJcCt7-109" target="9PY-Ta1Q_iB8eTjJcCt7-111">
          <mxGeometry relative="1" as="geometry">
            <Array as="points">
              <mxPoint x="560" y="1060" />
              <mxPoint x="630" y="1060" />
              <mxPoint x="630" y="230" />
              <mxPoint x="720" y="230" />
            </Array>
          </mxGeometry>
        </mxCell>
      </root>
    </mxGraphModel>
  </diagram>
</mxfile>
